<?xml version="1.0" encoding="utf-8"?>
<!-- Generator: Adobe Illustrator 18.0.0, SVG Export Plug-In . SVG Version: 6.00 Build 0)  -->
<!DOCTYPE svg PUBLIC "-//W3C//DTD SVG 1.1//EN" "http://www.w3.org/Graphics/SVG/1.1/DTD/svg11.dtd">
<svg version="1.1" id="Layer_1" xmlns="http://www.w3.org/2000/svg" xmlns:xlink="http://www.w3.org/1999/xlink" x="0px" y="0px"
	 viewBox="0 0 20 23" enable-background="new 0 0 20 23" xml:space="preserve">
<path fill="#575858" d="M18.8,17.3c-1.1-0.5-3.9-1.4-5.6-1.9c-0.1,0-0.2-0.1-0.2-0.6c0-0.5,0.2-1,0.4-1.4c0.2-0.5,0.5-1.2,0.6-1.9
	c0.3-0.3,0.6-0.9,0.8-2c0.2-1,0.1-1.3,0-1.7c0,0,0-0.1,0-0.1c0-0.2,0-1.4,0.2-2.4c0.1-0.6,0-2-0.9-3.1c-0.6-0.7-1.6-1.6-3.5-1.7H9.4
	c-1.9,0.1-3,1-3.5,1.7C5,3.3,4.9,4.6,5,5.3c0.2,0.9,0.2,2.1,0.2,2.3c0,0,0,0.1,0,0.1C5,8.1,4.9,8.4,5.1,9.4c0.2,1.1,0.6,1.7,0.8,2
	c0.1,0.7,0.3,1.5,0.6,1.9c0.2,0.3,0.2,0.8,0.2,1.4c0,0.6,0,0.6-0.2,0.6c-1.7,0.5-4.5,1.5-5.5,2c-0.8,0.4-1,1-1,1.5
	c0,0.6,0,2.2,0,2.6c0,0.4,0.2,1,1,1c0.6,0,5.5,0,7.7,0c0.7,0,1.1,0,1.1,0h0.2c0,0,0.4,0,1.1,0c2.2,0,7.1,0,7.7,0c0.8,0,1-0.6,1-1
	c0-0.4,0-2.1,0-2.6C20,18.3,19.6,17.6,18.8,17.3L18.8,17.3z M18.9,21.5H1.1v-2.6c0-0.3,0.1-0.5,0.4-0.6c1-0.4,3.7-1.4,5.4-1.9
	c0.9-0.3,0.9-1.1,0.9-1.6c0-0.8-0.1-1.4-0.3-1.9c-0.2-0.4-0.4-1-0.5-1.6l0-0.3l-0.2-0.2c-0.1-0.1-0.4-0.5-0.6-1.5
	C6,8.4,6.1,8.3,6.1,8.1C6.2,8,6.2,8,6.2,7.9l0,0l0,0c0.1-0.5,0-2-0.2-2.8C6,4.7,6.1,3.7,6.7,2.8C7.2,2.3,8,1.6,9.5,1.5h1
	c1.2,0.1,2.1,0.5,2.8,1.3c0.7,0.9,0.8,1.9,0.7,2.3c-0.1,0.8-0.3,2.3-0.2,2.8l0,0l0,0c0,0.1,0,0.1,0.1,0.2l0,0v0
	c0.1,0.2,0.1,0.3,0,1.1c-0.2,1-0.5,1.4-0.6,1.5L13,11l0,0.3c-0.1,0.6-0.3,1.2-0.5,1.6C12.2,13.4,12,14,12,14.7c0,0.6,0,1.4,0.9,1.7
	c1.6,0.5,4.3,1.4,5.4,1.9c0.4,0.2,0.6,0.5,0.6,0.6L18.9,21.5L18.9,21.5z"/>
</svg>
