<?xml version="1.0" encoding="utf-8"?>
<!-- Generator: Adobe Illustrator 18.0.0, SVG Export Plug-In . SVG Version: 6.00 Build 0)  -->
<!DOCTYPE svg PUBLIC "-//W3C//DTD SVG 1.1//EN" "http://www.w3.org/Graphics/SVG/1.1/DTD/svg11.dtd">
<svg version="1.1" id="Layer_1" xmlns="http://www.w3.org/2000/svg" xmlns:xlink="http://www.w3.org/1999/xlink" x="0px" y="0px"
	 viewBox="0 0 27 27" enable-background="new 0 0 27 27" xml:space="preserve">
<path fill="#575858" d="M13.5,3.4C7,3.4,1.8,8.6,1.8,15.1c0,2.9,1.1,5.6,2.9,7.7l-2.7,3.4l0.8,0.7l2.7-3.3c2.1,2,5,3.3,8.1,3.3
	c3.2,0,6-1.3,8.1-3.3l2.7,3.3l0.8-0.7l-2.7-3.4c1.8-2.1,2.9-4.7,2.9-7.7C25.2,8.6,20,3.4,13.5,3.4L13.5,3.4z M13.5,25.8
	C7.6,25.8,2.8,21,2.8,15.1c0-5.9,4.8-10.7,10.7-10.7s10.7,4.8,10.7,10.7S19.4,25.8,13.5,25.8L13.5,25.8z"/>
<path fill="#575858" d="M8.7,0.2H5.5c-2.9,0-5.3,2.4-5.3,5.3v3.2h1.5l7-7V0.2z M7.6,1.2L1.2,7.6V5.5c0-2.4,1.9-4.3,4.3-4.3L7.6,1.2
	L7.6,1.2L7.6,1.2z"/>
<path fill="#575858" d="M21.5,0.2h-3.2v1.5l7,7h1.5V5.5C26.8,2.6,24.4,0.2,21.5,0.2z M25.8,7.6L25.8,7.6l-6.4-6.4v0h2.1
	c2.4,0,4.3,1.9,4.3,4.3V7.6L25.8,7.6z"/>
<path fill="#575858" d="M13,15.1H7.1v1.1H14V6.6H13V15.1z"/>
</svg>
