<?xml version="1.0" encoding="utf-8"?>
<!-- Generator: Adobe Illustrator 18.0.0, SVG Export Plug-In . SVG Version: 6.00 Build 0)  -->
<!DOCTYPE svg PUBLIC "-//W3C//DTD SVG 1.1//EN" "http://www.w3.org/Graphics/SVG/1.1/DTD/svg11.dtd">
<svg version="1.1" id="Layer_1" xmlns="http://www.w3.org/2000/svg" xmlns:xlink="http://www.w3.org/1999/xlink" x="0px" y="0px"
	 viewBox="0 0 29 27" enable-background="new 0 0 29 27" xml:space="preserve">
<path fill="#575858" d="M26.8,0.2c0,0-0.1,0-0.1,0h-3.1v0l-21.2,0c0,0-0.1,0-0.1,0c-1.2,0-2.1,1-2.1,2.1c0,0.6,0.2,1.1,0.6,1.5
	l4.7,4.7V8.2c0,4.8,3.8,8.8,8.5,9v8.6H9.7v1.1h9.6v-1.1H15v-8.6c4.8-0.3,8.5-4.2,8.5-9v0.3l4.7-4.7c0.4-0.4,0.6-0.9,0.6-1.5
	C28.9,1.1,27.9,0.2,26.8,0.2L26.8,0.2z M5.4,7L1.5,3.1C1.3,2.9,1.2,2.6,1.2,2.3c0-0.6,0.5-1,1-1.1c0,0,0.1,0,0.1,0l0,0h3.1V7L5.4,7z
	 M22.5,8.2c0,4.4-3.6,8-8,8c-4.4,0-8-3.6-8-8V1.2h16V8.2z M27.5,3.1L23.6,7V1.3l3.1,0c0,0,0.1,0,0.1,0c0.6,0,1,0.5,1,1.1
	C27.8,2.6,27.7,2.9,27.5,3.1L27.5,3.1z"/>
</svg>
