<?xml version="1.0" encoding="utf-8"?>
<!-- Generator: Adobe Illustrator 18.0.0, SVG Export Plug-In . SVG Version: 6.00 Build 0)  -->
<!DOCTYPE svg PUBLIC "-//W3C//DTD SVG 1.1//EN" "http://www.w3.org/Graphics/SVG/1.1/DTD/svg11.dtd">
<svg version="1.1" id="Layer_1" xmlns="http://www.w3.org/2000/svg" xmlns:xlink="http://www.w3.org/1999/xlink" x="0px" y="0px"
	 viewBox="0 0 72 66" enable-background="new 0 0 72 66" xml:space="preserve">
<g id="Bike_1_">
	<path fill="#333333" d="M59.5,40.6c-6.9,0-12.5,5.6-12.5,12.5c0,6.9,5.6,12.5,12.5,12.5C66.4,65.6,72,60,72,53.1
		C72,46.2,66.4,40.6,59.5,40.6z M59.5,63.6c-5.8,0-10.5-4.7-10.5-10.5c0-5.8,4.7-10.5,10.5-10.5c5.8,0,10.5,4.7,10.5,10.5
		C70,58.9,65.3,63.6,59.5,63.6z"/>
	<path fill="#333333" d="M12.5,40.6C5.6,40.6,0,46.2,0,53.1C0,60,5.6,65.6,12.5,65.6C19.4,65.6,25,60,25,53.1
		C25,46.2,19.4,40.6,12.5,40.6z M12.5,63.6C6.7,63.6,2,58.9,2,53.1c0-5.8,4.7-10.5,10.5-10.5c5.8,0,10.5,4.7,10.5,10.5
		C23,58.9,18.3,63.6,12.5,63.6z"/>
	<circle fill="#333333" cx="41" cy="7.9" r="7.5"/>
	<g>
		<path fill="#333333" d="M31.9,54.3l0.1-1l-17.8-0.5l11.6-19.5l-1.7-1.1l-12.5,21c-0.2,0.3-0.2,0.7,0,1c0.2,0.3,0.5,0.5,0.8,0.5
			l19.4,0.5C31.9,55,31.9,54.6,31.9,54.3z"/>
		<path fill="#333333" d="M60.4,53.5L50.3,28.7l-2.1,0.2l0.4,0.9l-11.9-0.2l3.1,2l8.5,0.1l-6.2,10.7l-0.5,4.7L49.9,33l8.7,21.3
			c0.2,0.4,0.5,0.6,0.9,0.6c0.1,0,0.3,0,0.4-0.1C60.4,54.6,60.6,54.1,60.4,53.5z"/>
	</g>
	<path fill="#333333" d="M52.5,22.4l-10.3,1l-2.8-6.1c-0.4-0.1-0.7-0.2-1.1-0.3c-0.1,0-0.3-0.1-0.4-0.1c-0.3-0.1-0.6-0.2-0.9-0.4
		c-0.1-0.1-0.2-0.1-0.4-0.2c-0.3-0.2-0.6-0.3-0.9-0.5c-0.1-0.1-0.2-0.1-0.3-0.2c-0.3-0.2-0.6-0.4-0.8-0.7c-0.1-0.1-0.3-0.2-0.4-0.4
		c-0.7-0.7-1.2-1.5-1.7-2.3L21.2,23.7c-0.3,0.2-0.5,0.4-0.7,0.7c-0.8,1.2-0.4,2.7,0.7,3.5l14.3,9.4l-1.7,17.3
		c-0.1,1.4,0.9,2.6,2.2,2.7c0.1,0,0.2,0,0.2,0c1.3,0,2.4-1,2.5-2.3l1.8-18.8c0,0,0-0.1,0-0.1c0-0.1,0-0.2,0-0.3c0-0.1,0-0.2,0-0.2
		c0-0.1,0-0.2,0-0.2c0-0.1,0-0.2-0.1-0.2c0-0.1-0.1-0.2-0.1-0.2c0-0.1-0.1-0.1-0.1-0.2c0-0.1-0.1-0.1-0.1-0.2c0-0.1-0.1-0.1-0.2-0.2
		c-0.1-0.1-0.1-0.1-0.2-0.2c-0.1-0.1-0.1-0.1-0.2-0.2c0,0-0.1-0.1-0.1-0.1L29.1,27l7.1-7.2l2.9,6.4c0.3,0.7,1,1.2,1.8,1.2
		c0.1,0,0.1,0,0.2,0l11.7-1.1c1.1-0.1,1.9-1.1,1.8-2.2C54.6,23.1,53.6,22.3,52.5,22.4z"/>
	<polygon fill="#333333" points="32.9,44 29.7,35.8 26.8,33.9 32.4,48.5 	"/>
</g>
</svg>
