<?xml version="1.0" encoding="utf-8"?>
<!-- Generator: Adobe Illustrator 18.0.0, SVG Export Plug-In . SVG Version: 6.00 Build 0)  -->
<!DOCTYPE svg PUBLIC "-//W3C//DTD SVG 1.1//EN" "http://www.w3.org/Graphics/SVG/1.1/DTD/svg11.dtd">
<svg version="1.1" id="Layer_1" xmlns="http://www.w3.org/2000/svg" xmlns:xlink="http://www.w3.org/1999/xlink" x="0px" y="0px"
	 viewBox="0 0 59 59" enable-background="new 0 0 59 59" xml:space="preserve">
<path fill="#575858" d="M54,5.5h-7.9V1.9c0-1-0.8-1.8-1.8-1.8c-1,0-1.8,0.8-1.8,1.8v3.6H31.5V1.9c0-1-0.8-1.8-1.8-1.8
	c-1,0-1.8,0.8-1.8,1.8v3.6H17V1.9c0-1-0.8-1.8-1.8-1.8c-1,0-1.8,0.8-1.8,1.8v3.6H5.4c-2.7,0-4.9,2.2-4.9,4.9v43.1
	c0,2.7,2.2,4.9,4.9,4.9H54c2.7,0,4.9-2.2,4.9-4.9V10.4C58.8,7.7,56.6,5.5,54,5.5 M55.2,53.4c0,0.7-0.5,1.2-1.2,1.2H5.4
	c-0.7,0-1.2-0.5-1.2-1.2V10.4c0-0.7,0.5-1.2,1.2-1.2h7.9v3.6c0,1,0.8,1.8,1.8,1.8c1,0,1.8-0.8,1.8-1.8V9.2h10.9v3.6
	c0,1,0.8,1.8,1.8,1.8c1,0,1.8-0.8,1.8-1.8V9.2h10.9v3.6c0,1,0.8,1.8,1.8,1.8c1,0,1.8-0.8,1.8-1.8V9.2H54c0.7,0,1.2,0.5,1.2,1.2V53.4
	z"/>
<rect x="13.3" y="21.9" fill="#575858" width="7.3" height="5.5"/>
<rect x="13.3" y="31" fill="#575858" width="7.3" height="5.5"/>
<rect x="13.3" y="40.1" fill="#575858" width="7.3" height="5.5"/>
<rect x="26.1" y="40.1" fill="#575858" width="7.3" height="5.5"/>
<rect x="26.1" y="31" fill="#575858" width="7.3" height="5.5"/>
<rect x="26.1" y="21.9" fill="#575858" width="7.3" height="5.5"/>
<rect x="38.8" y="40.1" fill="#575858" width="7.3" height="5.5"/>
<rect x="38.8" y="31" fill="#575858" width="7.3" height="5.5"/>
<rect x="38.8" y="21.9" fill="#575858" width="7.3" height="5.5"/>
</svg>
