<?xml version="1.0" encoding="utf-8"?>
<!-- Generator: Adobe Illustrator 18.0.0, SVG Export Plug-In . SVG Version: 6.00 Build 0)  -->
<!DOCTYPE svg PUBLIC "-//W3C//DTD SVG 1.1//EN" "http://www.w3.org/Graphics/SVG/1.1/DTD/svg11.dtd">
<svg version="1.1" id="Layer_1" xmlns="http://www.w3.org/2000/svg" xmlns:xlink="http://www.w3.org/1999/xlink" x="0px" y="0px"
	 viewBox="0 0 72 72" enable-background="new 0 0 72 72" xml:space="preserve">
<g id="Camera_2_">
	<g id="Camera_3_">
		<path fill="#333333" d="M36,17.8c-6.6,0-12,5.4-12,12s5.4,12,12,12c6.6,0,12-5.4,12-12S42.6,17.8,36,17.8z M36,39.4
			c-5.3,0-9.6-4.3-9.6-9.6c0-5.3,4.3-9.6,9.6-9.6s9.6,4.3,9.6,9.6C45.6,35.1,41.3,39.4,36,39.4z"/>
		<g>
			<path fill="#333333" d="M38.5,23l-9.2,9.2c0.3,0.8,0.7,1.5,1.2,2.2l10.1-10.1C40,23.7,39.2,23.3,38.5,23z"/>
			<path fill="#333333" d="M35.5,22.6c-3.6,0.3-6.4,3.1-6.7,6.7L35.5,22.6z"/>
			<path fill="#333333" d="M34.8,36.9c0.4,0.1,0.8,0.1,1.2,0.1c4,0,7.2-3.2,7.2-7.2c0-0.4,0-0.8-0.1-1.2L34.8,36.9z"/>
		</g>
		<path fill="#333333" d="M18.1,3.4V1c0-0.5-0.4-1-1-1H9.5c-0.5,0-1,0.4-1,1v2.4H18.1z"/>
		<g>
			<path fill="#333333" d="M67.2,5.8H4.8C2.1,5.8,0,7.9,0,10.6v4.8h12.2c2.7,0,4.8,2.1,4.8,4.8v19.2c0,2.7-2.1,4.8-4.8,4.8H0V49
				c0,2.7,2.1,4.8,4.8,4.8h62.4c2.7,0,4.8-2.1,4.8-4.8V10.6C72,7.9,69.9,5.8,67.2,5.8z M36,44.2c-8,0-14.4-6.4-14.4-14.4
				c0-8,6.4-14.4,14.4-14.4c8,0,14.4,6.4,14.4,14.4C50.4,37.7,44,44.2,36,44.2z M64.5,14.4c0,0.5-0.4,1-1,1h-7.7c-0.5,0-1-0.4-1-1
				v-2.9c0-0.5,0.4-1,1-1h7.7c0.5,0,1,0.4,1,1V14.4z"/>
			<path fill="#333333" d="M14.7,39.4V20.2c0-1.3-1.1-2.4-2.4-2.4H0v24h12.2C13.6,41.8,14.7,40.7,14.7,39.4z"/>
		</g>
	</g>
	<g id="photo_1_">
		<polygon fill="#333333" points="52.1,67.2 58.9,67.2 58.9,60.4 		"/>
		<path fill="#333333" d="M61.3,56.2v11c0,1.3-1.1,2.4-2.4,2.4H13.1c-1.3,0-2.4-1.1-2.4-2.4v-11H8.3v11c0,2.7,2.1,4.8,4.8,4.8h45.8
			c2.7,0,4.8-2.1,4.8-4.8v-11H61.3z"/>
		<polygon fill="#333333" points="52.9,56.2 41.9,67.2 45.3,67.2 56.3,56.2 		"/>
		<polygon fill="#333333" points="13.1,56.2 13.1,67.2 38.5,67.2 49.6,56.2 		"/>
	</g>
</g>
</svg>
