<?xml version="1.0" encoding="utf-8"?>
<!-- Generator: Adobe Illustrator 18.0.0, SVG Export Plug-In . SVG Version: 6.00 Build 0)  -->
<!DOCTYPE svg PUBLIC "-//W3C//DTD SVG 1.1//EN" "http://www.w3.org/Graphics/SVG/1.1/DTD/svg11.dtd">
<svg version="1.1" id="Layer_1" xmlns="http://www.w3.org/2000/svg" xmlns:xlink="http://www.w3.org/1999/xlink" x="0px" y="0px"
	 viewBox="0 0 25 29" enable-background="new 0 0 25 29" xml:space="preserve">
<path fill="#575858" d="M20.5,18.2h4.3V9.7H0.2v8c0,5.6,4.5,10.1,10.1,10.1C15.8,27.8,20.2,23.6,20.5,18.2L20.5,18.2z M20.5,10.8
	h3.2v6.4h-3.2V10.8L20.5,10.8z M10.4,26.8c-5,0-9.1-4.1-9.1-9.1v-6.9h18.1v6.9C19.4,22.7,15.4,26.8,10.4,26.8z"/>
<path fill="#575858" d="M0.2,28.9h20.3v-1.1H0.2V28.9z"/>
<path fill="#575858" d="M5.6,1.7h1.1v4.8H5.6V1.7z"/>
<path fill="#575858" d="M14.1,1.7h1.1v4.8h-1.1V1.7z"/>
<path fill="#575858" d="M9.8,0.1h1.1v6.4H9.8V0.1L9.8,0.1z"/>
</svg>
