<?xml version="1.0" encoding="utf-8"?>
<!-- Generator: Adobe Illustrator 18.0.0, SVG Export Plug-In . SVG Version: 6.00 Build 0)  -->
<!DOCTYPE svg PUBLIC "-//W3C//DTD SVG 1.1//EN" "http://www.w3.org/Graphics/SVG/1.1/DTD/svg11.dtd">
<svg version="1.1" id="Layer_1" xmlns="http://www.w3.org/2000/svg" xmlns:xlink="http://www.w3.org/1999/xlink" x="0px" y="0px"
	 viewBox="0 0 30 18" enable-background="new 0 0 30 18" xml:space="preserve">
<path fill="#010101" d="M14.5,2.3C12,2,9.9,0.2,7.9,0.2c-2.2,0-7.6,4.3-7.6,12.7c0,4.2,2.9,4.4,3.2,4.4c0,0,0,0,0,0
	c1.8,0,3.4-0.9,5.5-2.9c2.1-2.1,2.9-2.6,4.4-2.6c0.6,0,1.3,0,1.5,0c0,0,0.1,0,0.1,0c0.2,0,0.9,0,1.5,0c1.5,0,2.3,0.5,4.4,2.6
	c2.1,2.1,3.7,2.9,5.5,2.9c0,0,0,0,0,0c0.4,0,3.2-0.1,3.2-4.4c0-8.4-5.5-12.7-7.6-12.7l0,0c-2,0-4.1,1.8-6.5,2.1 M26.5,16.2
	L26.5,16.2L26.5,16.2c-1.5,0-3-0.8-4.8-2.6c-2-2-3.1-2.9-5.1-2.9h-3.2c-2,0-3.1,0.9-5.1,2.9c-1.8,1.8-3.2,2.6-4.7,2.6l0,0l0,0
	c-0.5,0-2.2-0.2-2.2-3.3c0-8,5.2-11.6,6.6-11.6c0.8,0,1.7,0.4,2.7,0.9c1.3,0.6,2.7,1.2,4.4,1.2c1.6,0,3.1-0.7,4.3-1.2
	c1-0.4,1.9-0.9,2.7-0.9c1.3,0,6.6,3.6,6.6,11.6C28.6,16,27,16.2,26.5,16.2z"/>
<path fill="#010101" d="M8.7,4.4h-1v2.1H5.6v1h2.1v2.1h1V7.6h2.1v-1H8.7V4.4z"/>
<path fill="#010101" d="M19.7,5.5c-0.9,0-1.6,0.7-1.6,1.6c0,0.9,0.7,1.6,1.6,1.6c0.9,0,1.6-0.7,1.6-1.6C21.3,6.2,20.6,5.5,19.7,5.5z
	 M19.7,7.6c-0.3,0-0.5-0.2-0.5-0.5c0-0.3,0.2-0.5,0.5-0.5c0.3,0,0.5,0.2,0.5,0.5C20.2,7.3,20,7.6,19.7,7.6z"/>
<path fill="#010101" d="M23.9,6.5c-0.9,0-1.6,0.7-1.6,1.6c0,0.9,0.7,1.6,1.6,1.6c0.9,0,1.6-0.7,1.6-1.6C25.5,7.2,24.8,6.5,23.9,6.5z
	 M23.9,8.6c-0.3,0-0.5-0.2-0.5-0.5c0-0.3,0.2-0.5,0.5-0.5c0.3,0,0.5,0.2,0.5,0.5C24.4,8.4,24.2,8.6,23.9,8.6z"/>
</svg>
