<?xml version="1.0" encoding="utf-8"?>
<!-- Generator: Adobe Illustrator 18.0.0, SVG Export Plug-In . SVG Version: 6.00 Build 0)  -->
<!DOCTYPE svg PUBLIC "-//W3C//DTD SVG 1.1//EN" "http://www.w3.org/Graphics/SVG/1.1/DTD/svg11.dtd">
<svg version="1.1" id="Layer_1" xmlns="http://www.w3.org/2000/svg" xmlns:xlink="http://www.w3.org/1999/xlink" x="0px" y="0px"
	 viewBox="0 0 27 27" enable-background="new 0 0 27 27" xml:space="preserve">
<path fill="#333333" d="M13.5,0.2C13.5,0.2,13.5,0.2,13.5,0.2C13.5,0.2,13.5,0.2,13.5,0.2C13.5,0.2,13.5,0.2,13.5,0.2
	c-7.4,0-13.3,6-13.3,13.3c0,7.3,5.9,13.3,13.3,13.3c0,0,0,0,0,0c0,0,0,0,0,0c0,0,0,0,0,0c7.4,0,13.3-6,13.3-13.3
	C26.8,6.1,20.9,0.2,13.5,0.2z M14,8.1c1.4,0,2.8-0.2,4.1-0.5c0.4,1.6,0.6,3.4,0.7,5.4H14V8.1z M14,7.1V1.3c1.4,0.4,2.9,2.3,3.8,5.3
	C16.6,6.9,15.3,7,14,7.1z M13,1.3v5.8c-1.3,0-2.6-0.2-3.9-0.5C10.1,3.6,11.5,1.7,13,1.3L13,1.3z M13,8.1V13H8.1c0-2,0.3-3.8,0.7-5.4
	C10.2,7.9,11.5,8.1,13,8.1z M7.1,13H1.3C1.4,10.2,2.4,7.7,4,5.7c1.2,0.7,2.4,1.2,3.8,1.6C7.4,9,7.1,10.9,7.1,13z M7.1,14
	c0,2,0.3,4,0.7,5.7c-1.3,0.4-2.6,0.9-3.8,1.6c-1.6-2-2.7-4.5-2.8-7.2H7.1z M8.1,14H13v4.8c-1.4,0-2.8,0.2-4.1,0.6
	C8.4,17.8,8.2,16,8.1,14z M13,19.9v5.8c-1.4-0.4-2.9-2.3-3.9-5.3C10.4,20.1,11.6,19.9,13,19.9z M14,25.7v-5.8c1.3,0,2.6,0.2,3.8,0.5
	C16.9,23.4,15.5,25.3,14,25.7z M14,18.8V14h4.8c0,2-0.3,3.8-0.7,5.4C16.8,19.1,15.4,18.9,14,18.8L14,18.8z M19.9,14h5.8
	c-0.1,2.7-1.1,5.3-2.8,7.2c-1.2-0.7-2.5-1.2-3.8-1.6C19.6,18,19.9,16.1,19.9,14L19.9,14z M19.9,13c0-2-0.3-3.9-0.7-5.6
	c1.3-0.4,2.6-0.9,3.8-1.6c1.6,2,2.7,4.5,2.8,7.2H19.9L19.9,13z M22.2,4.9c-1.1,0.6-2.2,1-3.3,1.4c-0.6-2-1.5-3.6-2.5-4.7
	C18.6,2.1,20.7,3.3,22.2,4.9z M10.6,1.6c-1,1.1-1.9,2.7-2.5,4.7C6.9,5.9,5.8,5.5,4.8,4.9C6.3,3.3,8.4,2.1,10.6,1.6z M4.8,22.1
	c1.1-0.6,2.2-1,3.3-1.4c0.6,2,1.5,3.6,2.5,4.7C8.3,24.9,6.3,23.7,4.8,22.1L4.8,22.1z M16.4,25.4c1-1.1,1.9-2.7,2.5-4.7
	c1.2,0.4,2.3,0.8,3.4,1.4C20.7,23.7,18.6,24.9,16.4,25.4z"/>
</svg>
