<?xml version="1.0" encoding="utf-8"?>
<!-- Generator: Adobe Illustrator 18.0.0, SVG Export Plug-In . SVG Version: 6.00 Build 0)  -->
<!DOCTYPE svg PUBLIC "-//W3C//DTD SVG 1.1//EN" "http://www.w3.org/Graphics/SVG/1.1/DTD/svg11.dtd">
<svg version="1.1" id="Layer_1" xmlns="http://www.w3.org/2000/svg" xmlns:xlink="http://www.w3.org/1999/xlink" x="0px" y="0px"
	 viewBox="0 0 22 31" enable-background="new 0 0 22 31" xml:space="preserve">
<path fill="#010101" d="M21.7,10.7C21.7,4.8,16.9,0,11,0C5.1,0,0.3,4.8,0.3,10.7c0,3.5,1.7,6.5,4.2,8.5l0,0c0,0,0.1,0.1,0.2,0.1
	c0,0,0,0,0,0c0.8,0.7,2,2.2,2,4.2V31h8.5v-7.5c0-2.1,1.2-3.7,2.1-4.3l0,0C20,17.3,21.7,14.2,21.7,10.7L21.7,10.7z M7.8,29.9v-3.2
	h6.4v3.2H7.8z M11,11.8c-0.6,0-1.1-0.5-1.1-1.1c0-0.6,0.5-1.1,1.1-1.1c0.6,0,1.1,0.5,1.1,1.1C12.1,11.3,11.6,11.8,11,11.8z
	 M16.8,18.4C16.7,18.4,16.7,18.4,16.8,18.4c-1.2,0.9-2.6,2.7-2.6,5.1v2.1h-2.7V12.8c0.9-0.2,1.6-1.1,1.6-2.1c0-1.2-1-2.1-2.1-2.1
	c-1.2,0-2.1,1-2.1,2.1c0,1,0.7,1.8,1.6,2.1v12.9H7.8v-2.1c0-2.3-1.3-4.1-2.4-5c0,0,0,0,0,0c0,0-0.1-0.1-0.1-0.1c0,0,0,0-0.1,0
	c-2.4-1.8-3.8-4.6-3.8-7.6c0-5.3,4.3-9.6,9.6-9.6s9.6,4.3,9.6,9.6C20.6,13.7,19.2,16.5,16.8,18.4L16.8,18.4z"/>
</svg>
