<?xml version="1.0" encoding="utf-8"?>
<!-- Generator: Adobe Illustrator 18.0.0, SVG Export Plug-In . SVG Version: 6.00 Build 0)  -->
<!DOCTYPE svg PUBLIC "-//W3C//DTD SVG 1.1//EN" "http://www.w3.org/Graphics/SVG/1.1/DTD/svg11.dtd">
<svg version="1.1" id="Layer_1" xmlns="http://www.w3.org/2000/svg" xmlns:xlink="http://www.w3.org/1999/xlink" x="0px" y="0px"
	 viewBox="0 0 26 26" enable-background="new 0 0 26 26" xml:space="preserve">
<path fill="#333333" d="M0,25.2l13.9-13.9l0.8,0.8L0.8,26L0,25.2z"/>
<path fill="#333333" d="M10,7.5h4.3v1.1H10V7.5z"/>
<path fill="#333333" d="M21.7,7.5H26v1.1h-4.3V7.5z"/>
<path fill="#333333" d="M17.5,11.7h1.1V16h-1.1V11.7z"/>
<path fill="#333333" d="M17.5,0h1.1v4.3h-1.1V0z"/>
<path fill="#333333" d="M24,2.7l-3,3L20.2,5l3-3L24,2.7z"/>
<path fill="#333333" d="M23.3,14.1l-3-3l0.8-0.8l3,3L23.3,14.1z"/>
<path fill="#333333" d="M15,5.8l-3-3L12.7,2l3,3L15,5.8z"/>
</svg>
