<?xml version="1.0" encoding="utf-8"?>
<!-- Generator: Adobe Illustrator 18.0.0, SVG Export Plug-In . SVG Version: 6.00 Build 0)  -->
<!DOCTYPE svg PUBLIC "-//W3C//DTD SVG 1.1//EN" "http://www.w3.org/Graphics/SVG/1.1/DTD/svg11.dtd">
<svg version="1.1" id="Layer_1" xmlns="http://www.w3.org/2000/svg" xmlns:xlink="http://www.w3.org/1999/xlink" x="0px" y="0px"
	 viewBox="0 0 174 204" enable-background="new 0 0 174 204" xml:space="preserve">
<g>
	<g>
		<path fill="#424143" d="M54.5,203.3h119.1V-0.4H-0.2v142.8L54.5,203.3z M15.4,15.2H158v172.5H61.7v-51.1H15.4V15.2z"/>
	</g>
	<g>
		<path fill="#424143" d="M140.3,42.8H90.4c-2,0-3.7-1.7-3.7-3.7c0-2,1.7-3.7,3.7-3.7h49.9c2,0,3.7,1.7,3.7,3.7
			C144,41.2,142.3,42.8,140.3,42.8z"/>
	</g>
	<g>
		<path fill="#424143" d="M140.3,62.5H90.4c-2,0-3.7-1.7-3.7-3.7c0-2,1.7-3.7,3.7-3.7h49.9c2,0,3.7,1.7,3.7,3.7
			C144,60.8,142.3,62.5,140.3,62.5z"/>
	</g>
	<g>
		<path fill="#424143" d="M140.3,82.1H90.4c-2,0-3.7-1.7-3.7-3.7c0-2,1.7-3.7,3.7-3.7h49.9c2,0,3.7,1.7,3.7,3.7
			C144,80.4,142.3,82.1,140.3,82.1z"/>
	</g>
	<g>
		<path fill="#424143" d="M140.3,101.7H35.6c-2,0-3.7-1.7-3.7-3.7c0-2,1.7-3.7,3.7-3.7h104.7c2,0,3.7,1.7,3.7,3.7
			C144,100.1,142.3,101.7,140.3,101.7z"/>
	</g>
	<g>
		<path fill="#424143" d="M140.3,121.4H35.6c-2,0-3.7-1.7-3.7-3.7c0-2,1.7-3.7,3.7-3.7h104.7c2,0,3.7,1.7,3.7,3.7
			C144,119.7,142.3,121.4,140.3,121.4z"/>
	</g>
	<g>
		<g>
			<path fill="#434244" d="M35.9,83.7h37c0-16.8-3.4-25.7-14.6-28.2c5.3-1.6,9.1-6.5,9.1-12.3c0-7.1-5.8-12.9-12.9-12.9
				c-7.1,0-12.9,5.8-12.9,12.9c0,5.8,3.8,10.7,9.1,12.3C39.3,58,35.9,66.8,35.9,83.7z"/>
		</g>
		<path fill="#FFFFFF" d="M55.8,61.6c0.3,0,0.6,0.3,0.6,0.6v1.4c0,0.3,0,0.6-0.1,0.6c0,0-0.3,0.2-0.6,0.3L54.9,65
			c-0.3,0.2-0.7,0.2-1,0L53,64.5c-0.3-0.2-0.5-0.3-0.6-0.3c0,0-0.1-0.3-0.1-0.6v-1.4c0-0.3,0.3-0.6,0.6-0.6H55.8z"/>
		<path fill="#FFFFFF" d="M57.4,73.3c0,0.3-0.1,0.7-0.4,0.9l-2.3,1.9c-0.2,0.2-0.6,0.2-0.9,0l-2.3-1.9c-0.2-0.2-0.4-0.6-0.4-0.9
			l1.1-7.5c0-0.3,0.3-0.4,0.6-0.3l0.9,0.5c0.3,0.2,0.7,0.2,1,0l0.9-0.5c0.3-0.2,0.5,0,0.6,0.3L57.4,73.3z"/>
	</g>
</g>
</svg>
