<?xml version="1.0" encoding="utf-8"?>
<!-- Generator: Adobe Illustrator 18.0.0, SVG Export Plug-In . SVG Version: 6.00 Build 0)  -->
<!DOCTYPE svg PUBLIC "-//W3C//DTD SVG 1.1//EN" "http://www.w3.org/Graphics/SVG/1.1/DTD/svg11.dtd">
<svg version="1.1" id="Layer_1" xmlns="http://www.w3.org/2000/svg" xmlns:xlink="http://www.w3.org/1999/xlink" x="0px" y="0px"
	 viewBox="0 0 72 72" enable-background="new 0 0 72 72" xml:space="preserve">
<g id="Brush_1_">
	<path fill="#333333" d="M22.6,60.8c3.1-3.1,3.1-8.3,0-11.4c-3.1-3.1-8.2-3.1-11.4,0C8.1,52.6-2.6,68.4,0.6,71.5
		c2,2,2.6-2.6,8.4-6.3c2-1.3,5.8-0.2,9.1-1.5C20,63,22.2,61.2,22.6,60.8z M8.5,62.4c-0.4,0.1-0.7,0.3-1.1,0.5c-1.5,1-2.7,2-3.7,3
		c0.6-1.3,1.4-3.1,2.7-5.2c2.4-4.1,5.3-8.1,6.6-9.4c2.1-2.1,5.5-2.1,7.6,0c0.3,0.3,0.6,0.7,0.8,1.1c-2.1-1.2-4.8-0.9-6.5,0.8
		C13.7,54.5,10.9,58.3,8.5,62.4z"/>
	<path fill="#333333" d="M41.5,41.1C52.7,28.3,74.1,2.8,71.6,0.3c-2.4-2.4-27.9,18.9-40.8,30.1L41.5,41.1z"/>
	<path fill="#333333" d="M23.8,36.8c-3.1,3.1-3.1,8.3,0,11.4c3.1,3.1,8.2,3.1,11.4,0c0.3-0.3,0.7-0.8,1.4-1.5L25.3,35.4
		C24.6,36.1,24.1,36.6,23.8,36.8z"/>
	<path fill="#333333" d="M39.8,43.2L28.9,32.3c-0.5,0.5-1.1,0.9-1.5,1.4l11.1,11.1C38.8,44.2,39.3,43.7,39.8,43.2z"/>
	<path fill="#333333" d="M9.5,47.7c2-2,4.6-3.1,7.4-3.1c0.8,0,1.7,0.1,2.4,0.3c-0.8-3.4,0.1-7.2,2.8-9.8c0.3-0.3,0.8-0.8,1.6-1.5
		l0.1-0.1l0,0l0.7-0.7l0.8-0.8l0,0l0.3-0.3c0.5-0.4,1-0.9,1.5-1.4l0.1-0.1l0,0l0.9-0.8L29,29l0,0l0.3-0.3c3.8-3.3,13.7-11.9,23-19.2
		c1.4-1.1,2.8-2.2,4.1-3.1C50.6,2.3,43.6,0,36.1,0C16.2,0,0.2,16.1,0.2,35.9c0,6.5,1.7,12.6,4.7,17.8C6.7,51,8.5,48.8,9.5,47.7z
		 M12.8,12.7c5.9-5.9,12.9-8.2,15.8-5.3c2.9,2.9,0.5,10-5.3,15.8c-5.9,5.9-12.9,8.2-15.8,5.3C4.6,25.6,7,18.5,12.8,12.7z"/>
	<path fill="#333333" d="M65.7,15.6c-0.7,0.9-1.4,1.8-2.1,2.7C56.1,28,46.9,38.6,43.3,42.7L43,43.1l0,0l-0.6,0.7l-0.8,0.9l0,0
		l-0.1,0.1c-0.5,0.5-0.9,1.1-1.4,1.5l-0.3,0.3l0,0l-0.7,0.8l-0.7,0.8l0,0l-0.1,0.1c-0.7,0.8-1.2,1.3-1.5,1.6c-2,2-4.6,3.1-7.4,3.1
		c-0.8,0-1.7-0.1-2.4-0.3c0.4,1.5,0.4,3,0.1,4.5l-0.3,1.1c-0.5,1.5-1.3,3-2.6,4.2c-0.6,0.6-3.1,2.5-5.4,3.4
		c-0.6,0.2-1.2,0.4-1.8,0.5c5.5,3.4,12,5.4,19,5.4C55.9,71.9,72,55.8,72,35.9C72,28.4,69.7,21.4,65.7,15.6z M46.1,62.7
		c-1.9,1.9-5.2,1.5-7.5-0.7c-2.3-2.3-2.6-5.6-0.7-7.5c1.9-1.9,5.2-1.5,7.5,0.7C47.6,57.4,48,60.8,46.1,62.7z M59.8,55.4
		c-1.9,1.9-5.2,1.5-7.5-0.7c-2.3-2.3-2.6-5.6-0.7-7.5c1.9-1.9,5.2-1.5,7.5,0.7C61.3,50.1,61.6,53.5,59.8,55.4z M58.6,40
		c-2.3-2.3-2.6-5.6-0.7-7.5c1.9-1.9,5.2-1.5,7.5,0.7c2.3,2.3,2.6,5.6,0.7,7.5C64.2,42.6,60.8,42.3,58.6,40z"/>
</g>
</svg>
