<?xml version="1.0" encoding="utf-8"?>
<!-- Generator: Adobe Illustrator 18.0.0, SVG Export Plug-In . SVG Version: 6.00 Build 0)  -->
<!DOCTYPE svg PUBLIC "-//W3C//DTD SVG 1.1//EN" "http://www.w3.org/Graphics/SVG/1.1/DTD/svg11.dtd">
<svg version="1.1" id="Layer_1" xmlns="http://www.w3.org/2000/svg" xmlns:xlink="http://www.w3.org/1999/xlink" x="0px" y="0px"
	 viewBox="0 0 180 174" enable-background="new 0 0 180 174" xml:space="preserve">
<g>
	<g>
		<path fill="#FFFFFF" d="M146.3,0.6H22c-6.4,0-11.6,5.2-11.6,11.6v150.1c0,6.4,5.2,11.6,11.6,11.6h124.3c6.4,0,11.6-5.2,11.6-11.6
			V12.2C157.9,5.8,152.7,0.6,146.3,0.6z M18.6,12.4c0-2,1.6-3.6,3.6-3.6h123.9c2,0,3.6,1.6,3.6,3.6v149.6c0,1.9-1.6,3.6-3.6,3.6
			H22.2c-2,0-3.6-1.6-3.6-3.6"/>
	</g>
	<g>
		<rect x="39" y="6.9" fill="#FFFFFF" width="3.8" height="160.8"/>
	</g>
	<path fill="#FFFFFF" d="M29,30.9c0,2.4-1.9,4.3-4.3,4.3h-20c-2.4,0-4.3-1.9-4.3-4.3l0,0c0-2.4,1.9-4.3,4.3-4.3h20
		C27.1,26.6,29,28.5,29,30.9L29,30.9z"/>
	<path fill="#FFFFFF" d="M133.6,41.8c0,1.6-1.3,3-3,3H86.4c-1.6,0-3-1.3-3-3l0,0c0-1.6,1.3-3,3-3h44.3
		C132.3,38.9,133.6,40.2,133.6,41.8L133.6,41.8z"/>
	<path fill="#FFFFFF" d="M133.6,67.2c0,1.6-1.3,3-3,3H86.4c-1.6,0-3-1.3-3-3l0,0c0-1.6,1.3-3,3-3h44.3
		C132.3,64.3,133.6,65.6,133.6,67.2L133.6,67.2z"/>
	<path fill="#FFFFFF" d="M133.6,92.7c0,1.6-1.3,3-3,3H86.4c-1.6,0-3-1.3-3-3l0,0c0-1.6,1.3-3,3-3h44.3
		C132.3,89.7,133.6,91,133.6,92.7L133.6,92.7z"/>
	<path fill="#FFFFFF" d="M29,68.8c0,2.4-1.9,4.3-4.3,4.3h-20c-2.4,0-4.3-1.9-4.3-4.3l0,0c0-2.4,1.9-4.3,4.3-4.3h20
		C27.1,64.5,29,66.4,29,68.8L29,68.8z"/>
	<path fill="#FFFFFF" d="M29,106.7c0,2.4-1.9,4.3-4.3,4.3h-20c-2.4,0-4.3-1.9-4.3-4.3l0,0c0-2.4,1.9-4.3,4.3-4.3h20
		C27.1,102.4,29,104.3,29,106.7L29,106.7z"/>
	<path fill="#FFFFFF" d="M29,144.6c0,2.4-1.9,4.3-4.3,4.3h-20c-2.4,0-4.3-1.9-4.3-4.3l0,0c0-2.4,1.9-4.3,4.3-4.3h20
		C27.1,140.3,29,142.3,29,144.6L29,144.6z"/>
	<g>
		<path fill="#FFFFFF" d="M62.4,49c-1.1,1-2.8,0.9-3.8-0.2l-4.2-4.6c-1-1.1-0.9-2.8,0.2-3.8l0.2-0.2c1.1-1,2.8-0.9,3.8,0.2l0.3,0.4
			c1,1.1,2.7,1.2,3.8,0.2l9.1-8.3c1.1-1,2.8-0.9,3.8,0.2l0.2,0.2c1,1.1,0.9,2.8-0.2,3.8L62.4,49z"/>
	</g>
	<g>
		<path fill="#FFFFFF" d="M62.4,73.7c-1.1,1-2.8,0.9-3.8-0.2l-4.2-4.6c-1-1.1-0.9-2.8,0.2-3.8l0.2-0.2c1.1-1,2.8-0.9,3.8,0.2
			l0.3,0.4c1,1.1,2.7,1.2,3.8,0.2l9.1-8.3c1.1-1,2.8-0.9,3.8,0.2l0.2,0.2c1,1.1,0.9,2.8-0.2,3.8L62.4,73.7z"/>
	</g>
	<g>
		<path fill="#FFFFFF" d="M62.4,98.4c-1.1,1-2.8,0.9-3.8-0.2l-4.2-4.6c-1-1.1-0.9-2.8,0.2-3.8l0.2-0.2c1.1-1,2.8-0.9,3.8,0.2
			l0.3,0.4c1,1.1,2.7,1.2,3.8,0.2l9.1-8.3c1.1-1,2.8-0.9,3.8,0.2l0.2,0.2c1,1.1,0.9,2.8-0.2,3.8L62.4,98.4z"/>
	</g>
	<g>
		<path fill="#F15D5E" d="M117.7,134.2l-3,24.5l23.9-6.2l39.9-45.7c2.1-2.4,1.6-6.3-1.1-8.6l-11.1-9.7c-2.7-2.4-6.6-2.3-8.7,0.1"/>
		<g>
			
				<rect x="135.6" y="99.4" transform="matrix(0.7531 0.6579 -0.6579 0.7531 113.595 -61.3064)" fill="#FFFFFF" width="5.8" height="42.7"/>
			
				<rect x="122.5" y="122.5" transform="matrix(0.6583 -0.7528 0.7528 0.6583 -45.2267 151.0994)" fill="#FFFFFF" width="42.7" height="5.8"/>
			
				<rect x="146.3" y="108.7" transform="matrix(-0.7527 -0.6584 0.6584 -0.7527 175.7958 326.0868)" fill="#FFFFFF" width="5.8" height="42.7"/>
			<polygon fill="#FFFFFF" points="119.1,153.6 124.2,152.2 119.8,148.4 			"/>
			<polygon fill="#FFFFFF" points="120.1,146.7 125.9,151.7 136.7,148.7 121.7,135.6 			"/>
			
				<rect x="149.8" y="105.9" transform="matrix(-0.7529 -0.6581 0.6581 -0.7529 209.5343 292.9337)" fill="#FFFFFF" width="19.9" height="2.5"/>
			<path fill="#FFFFFF" d="M173.3,101.3l-9.6-8.4c-1.5-1.3-3.7-1.2-4.9,0.2l-4.7,5.3l15,13.1l4.7-5.3
				C175.1,104.8,174.8,102.6,173.3,101.3z"/>
		</g>
	</g>
</g>
</svg>
