<?xml version="1.0" encoding="utf-8"?>
<!-- Generator: Adobe Illustrator 18.0.0, SVG Export Plug-In . SVG Version: 6.00 Build 0)  -->
<!DOCTYPE svg PUBLIC "-//W3C//DTD SVG 1.1//EN" "http://www.w3.org/Graphics/SVG/1.1/DTD/svg11.dtd">
<svg version="1.1" id="Layer_1" xmlns="http://www.w3.org/2000/svg" xmlns:xlink="http://www.w3.org/1999/xlink" x="0px" y="0px"
	 viewBox="0 0 26 29" enable-background="new 0 0 26 29" xml:space="preserve">
<path fill="#010101" d="M20.4,28.9c-2.4,0-8.3-3.1-13.3-9.8C2.5,12.9,0.2,8.4,0.2,5.3c0-2.4,1.6-3.5,2.5-4.1L3,1
	c1-0.7,2.5-0.9,3.1-0.9c1,0,1.5,0.6,1.7,1.1C8,1.7,9.8,5.6,10,6.1c0.3,0.8,0.2,1.9-0.7,2.5L9.2,8.7C8.7,9,7.9,9.6,7.8,10.3
	c-0.1,0.3,0.1,0.7,0.3,1.1c1.4,1.9,6,7.5,6.8,8.3c0.6,0.6,1.5,0.7,2,0.2c0.6-0.5,0.8-0.8,0.8-0.8l0.1-0.1c0,0,0.5-0.4,1.2-0.4
	c0.5,0,1.1,0.2,1.6,0.5c1.4,0.9,4.5,3,4.5,3l0.1,0c0.4,0.3,1,1.3,0.3,2.6C24.8,26.2,22.6,28.9,20.4,28.9L20.4,28.9z M6,1.2
	c-0.5,0-1.7,0.2-2.5,0.7L3.3,2.1C2.5,2.6,1.3,3.5,1.3,5.3c0,2.8,2.2,7.1,6.7,13.1c4.9,6.6,10.5,9.4,12.4,9.4c1.6,0,3.5-2.3,4.1-3.5
	c0.4-0.7,0.1-1.2,0-1.3c-0.4-0.2-3.2-2.1-4.5-3c-0.4-0.2-0.7-0.4-1-0.4c-0.3,0-0.5,0.1-0.5,0.1c-0.1,0.1-0.4,0.4-0.9,0.8
	c-1,0.8-2.4,0.7-3.4-0.3c-0.9-0.9-5.6-6.7-6.9-8.5c-0.5-0.6-0.6-1.3-0.5-1.9C6.9,9,8,8.2,8.6,7.8l0.1-0.1c0.5-0.4,0.4-1,0.3-1.2
	C8.9,6.1,7,2.2,6.8,1.7C6.6,1.3,6.5,1.2,6,1.2L6,1.2z"/>
</svg>
