<?xml version="1.0" encoding="utf-8"?>
<!-- Generator: Adobe Illustrator 18.0.0, SVG Export Plug-In . SVG Version: 6.00 Build 0)  -->
<!DOCTYPE svg PUBLIC "-//W3C//DTD SVG 1.1//EN" "http://www.w3.org/Graphics/SVG/1.1/DTD/svg11.dtd">
<svg version="1.1" id="Layer_1" xmlns="http://www.w3.org/2000/svg" xmlns:xlink="http://www.w3.org/1999/xlink" x="0px" y="0px"
	 viewBox="0 0 27 21" enable-background="new 0 0 27 21" xml:space="preserve">
<path fill="#333333" d="M24.7,3.6h-4.4L17.7,1c0,0,0,0,0,0l0,0c-0.4-0.4-0.9-0.6-1.5-0.6h-5.3c-0.6,0-1.2,0.3-1.6,0.7l0,0L6.8,3.6
	H2.3c-1.2,0-2.1,1-2.1,2.1v12.8c0,1.2,1,2.1,2.1,2.1h22.4c1.2,0,2.1-1,2.1-2.1V5.7C26.8,4.5,25.9,3.6,24.7,3.6L24.7,3.6z M25.8,18.5
	c0,0.6-0.5,1.1-1.1,1.1H2.3c-0.6,0-1.1-0.5-1.1-1.1V5.7c0-0.6,0.5-1.1,1.1-1.1h4.9L8.9,3l0,0.1l1.2-1.3c0.2-0.2,0.5-0.3,0.8-0.3h5.3
	c0.3,0,0.5,0.1,0.8,0.3l2.9,2.9h4.9c0.6,0,1.1,0.5,1.1,1.1V18.5L25.8,18.5z"/>
<path fill="#333333" d="M13.5,4.6c-3.8,0-6.9,3.1-6.9,6.9s3.1,6.9,6.9,6.9c3.8,0,6.9-3.1,6.9-6.9S17.3,4.6,13.5,4.6z M13.5,17.4
	c-3.2,0-5.9-2.6-5.9-5.9c0-3.2,2.6-5.9,5.9-5.9c3.2,0,5.9,2.6,5.9,5.9C19.4,14.8,16.7,17.4,13.5,17.4z"/>
<path fill="#333333" d="M13.5,6.8c-2.7,0-4.8,2.1-4.8,4.8c0,2.7,2.1,4.8,4.8,4.8c2.7,0,4.8-2.1,4.8-4.8C18.3,8.9,16.2,6.8,13.5,6.8z
	 M13.5,15.3c-2.1,0-3.7-1.7-3.7-3.7c0-2.1,1.7-3.7,3.7-3.7c2.1,0,3.7,1.7,3.7,3.7C17.2,13.6,15.6,15.3,13.5,15.3z"/>
</svg>
