<?xml version="1.0" encoding="utf-8"?>
<!-- Generator: Adobe Illustrator 18.0.0, SVG Export Plug-In . SVG Version: 6.00 Build 0)  -->
<!DOCTYPE svg PUBLIC "-//W3C//DTD SVG 1.1//EN" "http://www.w3.org/Graphics/SVG/1.1/DTD/svg11.dtd">
<svg version="1.1" id="Layer_1" xmlns="http://www.w3.org/2000/svg" xmlns:xlink="http://www.w3.org/1999/xlink" x="0px" y="0px"
	 viewBox="0 0 72 54" enable-background="new 0 0 72 54" xml:space="preserve">
<g id="Take_off_1_">
	<g id="Plane_1_">
		<path fill="#333333" d="M51.1,48.7l-2.8,1.6c-1.2,0.7-2.7,0.3-3.4-0.9L35.5,33c-0.7-1.2-0.3-2.7,0.9-3.4l9.9-5.7
			c1.2-0.7,2.4-0.2,2.6,1.2L52.8,45C53.1,46.3,52.3,48,51.1,48.7z"/>
		<path fill="#333333" d="M40.9,12.8L27.5,1.1c-1-0.9-2.8-1.1-4-0.4l-2.8,1.6C19.4,3,19,4.5,19.7,5.7l8.4,14.5L40.9,12.8z"/>
		<path fill="#333333" d="M70.9,15.2l-17.8-4.8c-1.3-0.4-3.4-0.1-4.6,0.6L11.2,32.6l-7.2,4.1l4.5,7.9c0.7,1.2,2.3,1.8,3.6,1.3
			l23.2-8.4l-1.9-3.3c-1.3-2.3-0.5-5.2,1.8-6.5l9.9-5.7c1.2-0.7,2.6-0.8,3.8-0.3c1.2,0.5,2,1.6,2.3,3l0.7,3.6l7.1-4.1l12.2-7
			C72.4,16.4,72.3,15.6,70.9,15.2z M24.8,29.8c0.3,0.6,0.1,1.4-0.5,1.7L24,31.7c-0.6,0.3-1.4,0.1-1.7-0.5l-0.2-0.4
			c-0.3-0.6-0.1-1.4,0.5-1.7l0.4-0.2c0.6-0.3,1.4-0.1,1.7,0.5L24.8,29.8z M29.1,27.3c0.3,0.6,0.1,1.4-0.5,1.7l-0.4,0.2
			c-0.6,0.3-1.4,0.1-1.7-0.5l-0.2-0.4c-0.3-0.6-0.1-1.4,0.5-1.7l0.4-0.2c0.6-0.3,1.4-0.1,1.7,0.5L29.1,27.3z M33.4,24.8
			c0.3,0.6,0.1,1.4-0.5,1.7l-0.4,0.2c-0.6,0.3-1.4,0.1-1.7-0.5l-0.2-0.4c-0.3-0.6-0.1-1.4,0.5-1.7l0.4-0.2c0.6-0.3,1.4-0.1,1.7,0.5
			L33.4,24.8z M37.7,22.3c0.3,0.6,0.1,1.4-0.5,1.7l-0.4,0.2c-0.6,0.3-1.4,0.1-1.7-0.5L35,23.4c-0.3-0.6-0.1-1.4,0.5-1.7l0.4-0.2
			c0.6-0.3,1.4-0.1,1.7,0.5L37.7,22.3z M42,19.8c0.3,0.6,0.1,1.4-0.5,1.7l-0.4,0.2c-0.6,0.3-1.4,0.1-1.7-0.5l-0.2-0.4
			c-0.3-0.6-0.1-1.4,0.5-1.7l0.4-0.2c0.6-0.3,1.4-0.1,1.7,0.5L42,19.8z M46.3,17.3c0.3,0.6,0.1,1.4-0.5,1.7l-0.4,0.2
			c-0.6,0.3-1.4,0.1-1.7-0.5l-0.2-0.4c-0.3-0.6-0.1-1.4,0.5-1.7l0.4-0.2c0.6-0.3,1.4-0.1,1.7,0.5L46.3,17.3z M54.6,14l-3.2,1.9
			c-0.5,0.3-1,0.1-1.3-0.4l-0.5-0.8c-0.3-0.5-0.1-1,0.4-1.3l1.3-0.8c0.1-0.1,0.4-0.1,0.5-0.1l2.8,0.7C55,13.4,55.1,13.7,54.6,14z"/>
		<path fill="#333333" d="M9.8,30.8l-5-3.3c-1.1-0.8-2.9-0.9-3.9-0.3c-1,0.6-1.2,2-0.6,3.2l2.5,4.4L9.8,30.8z"/>
	</g>
	<path fill="#333333" d="M39,45.9l-11.5,6.6c-0.5,0.3-1,0.1-1.3-0.4c-0.3-0.5-0.1-1,0.4-1.3L38,44.2c0.5-0.3,1-0.1,1.3,0.4
		C39.6,45,39.4,45.6,39,45.9z"/>
	<path fill="#333333" d="M36.8,42.1l-3.5,2c-0.5,0.3-1,0.1-1.3-0.4c-0.3-0.5-0.1-1,0.4-1.3l3.5-2c0.5-0.3,1-0.1,1.3,0.4
		C37.4,41.2,37.2,41.8,36.8,42.1z"/>
	<path fill="#333333" d="M41.4,50.1l-6.1,3.5c-0.5,0.3-1,0.1-1.3-0.4c-0.3-0.5-0.1-1,0.4-1.3l6.1-3.5c0.5-0.3,1-0.1,1.3,0.4
		C42,49.2,41.8,49.8,41.4,50.1z"/>
	<path fill="#333333" d="M19.9,14.3L7.6,21.4c-0.5,0.3-1,0.1-1.3-0.4c-0.3-0.5-0.1-1,0.4-1.3L19,12.7c0.5-0.3,1-0.1,1.3,0.4
		C20.5,13.5,20.4,14.1,19.9,14.3z"/>
	<path fill="#333333" d="M22.1,18.2l-4.2,2.4c-0.5,0.3-1,0.1-1.3-0.4c-0.3-0.5-0.1-1,0.4-1.3l4.2-2.4c0.5-0.3,1-0.1,1.3,0.4
		C22.8,17.3,22.6,17.9,22.1,18.2z"/>
	<path fill="#333333" d="M17.5,10.2l-6.9,4c-0.5,0.3-1,0.1-1.3-0.4c-0.3-0.5-0.1-1,0.4-1.3l6.9-4c0.5-0.3,1-0.1,1.3,0.4
		C18.1,9.3,18,9.9,17.5,10.2z"/>
</g>
</svg>
