<?xml version="1.0" encoding="utf-8"?>
<!-- Generator: Adobe Illustrator 18.0.0, SVG Export Plug-In . SVG Version: 6.00 Build 0)  -->
<!DOCTYPE svg PUBLIC "-//W3C//DTD SVG 1.1//EN" "http://www.w3.org/Graphics/SVG/1.1/DTD/svg11.dtd">
<svg version="1.1" id="Layer_1" xmlns="http://www.w3.org/2000/svg" xmlns:xlink="http://www.w3.org/1999/xlink" x="0px" y="0px"
	 viewBox="0 0 24 27" enable-background="new 0 0 24 27" xml:space="preserve">
<path fill="#333333" d="M20.6,13.5c2.6-2.7,3.8-5.3,2.8-6.9C23,5.9,22.1,5.2,20,5.2c-1.1,0-2.5,0.2-3.9,0.7c-1-3.4-2.5-5.6-4.4-5.6
	c-1.8,0-3.4,2.2-4.3,5.5C6.2,5.4,5,5.2,4,5.2c-2.1,0-3,0.8-3.4,1.4C-0.2,7.9,0.4,9.8,2.1,12c0.4,0.5,0.8,1,1.3,1.5
	c-2.6,2.7-3.8,5.3-2.8,6.9C1,21.1,1.9,21.8,4,21.8c1,0,2.2-0.2,3.5-0.5c1,3.4,2.5,5.5,4.3,5.5c1.8,0,3.4-2.2,4.4-5.6
	c1.4,0.4,2.8,0.7,3.9,0.7c2.1,0,3-0.8,3.4-1.4C24.4,18.8,23.2,16.2,20.6,13.5z M20,6.2c0.9,0,2,0.2,2.5,0.9c0.6,1.1-0.3,3.2-2.7,5.6
	C19,12,18,11.2,16.9,10.4c-0.1-1.3-0.3-2.5-0.5-3.5C17.8,6.5,19,6.2,20,6.2L20,6.2z M14.2,17.1c-0.7,0.4-1.5,0.9-2.2,1.2
	c-0.7-0.4-1.5-0.8-2.2-1.2c-0.8-0.5-1.5-1-2.2-1.5c0-0.7-0.1-1.4-0.1-2.2c0-0.8,0-1.5,0.1-2.2c0.7-0.5,1.4-1,2.2-1.5
	C10.5,9.4,11.3,9,12,8.6c0.7,0.4,1.5,0.8,2.2,1.2c0.6,0.4,1.2,0.7,1.7,1.1c0.1,0.8,0.1,1.6,0.1,2.5c0,0.9,0,1.7-0.1,2.5
	C15.4,16.4,14.8,16.8,14.2,17.1z M15.8,17.4c-0.1,0.9-0.2,1.7-0.4,2.4c-0.7-0.2-1.4-0.5-2.2-0.9c0.5-0.3,1-0.6,1.6-0.9
	C15.1,17.8,15.5,17.6,15.8,17.4L15.8,17.4z M10.8,18.9c-0.9,0.4-1.8,0.7-2.6,1C8,19.1,7.8,18.1,7.7,17c0.5,0.3,1,0.7,1.5,1
	C9.8,18.4,10.3,18.7,10.8,18.9z M6.5,14.8c-0.5-0.4-1.1-0.9-1.5-1.3c0.5-0.4,1-0.9,1.5-1.3c0,0.4,0,0.9,0,1.3
	C6.5,13.9,6.5,14.4,6.5,14.8z M7.7,9.9c0.1-1,0.3-2,0.5-2.9c0.8,0.3,1.7,0.6,2.6,1c-0.5,0.3-1,0.6-1.6,0.9C8.7,9.3,8.2,9.6,7.7,9.9
	L7.7,9.9z M13.2,8.1c0.7-0.3,1.5-0.6,2.2-0.9c0.2,0.8,0.3,1.6,0.4,2.4c-0.3-0.2-0.7-0.4-1-0.6C14.2,8.6,13.7,8.3,13.2,8.1z M17,11.8
	c0.7,0.6,1.4,1.1,2,1.7c-0.6,0.6-1.3,1.1-2,1.7c0-0.6,0-1.1,0-1.7C17.1,12.9,17.1,12.4,17,11.8z M11.8,1.2c1.2,0,2.5,1.9,3.3,4.9
	c-1,0.3-2.1,0.8-3.1,1.3C10.8,6.9,9.6,6.4,8.5,6C9.3,3,10.6,1.2,11.8,1.2L11.8,1.2z M1.5,7.1C2,6.4,3.1,6.2,4,6.2
	c0.9,0,2,0.2,3.2,0.5c-0.3,1.2-0.5,2.6-0.6,4c-0.9,0.7-1.7,1.3-2.4,2c-0.5-0.5-0.9-0.9-1.2-1.4C1.5,9.5,1,8,1.5,7.1z M4,20.8
	c-0.9,0-2-0.2-2.5-0.9c-0.6-1.1,0.3-3.2,2.7-5.6c0.7,0.7,1.5,1.3,2.4,2c0.1,1.5,0.3,2.8,0.6,4C6,20.6,4.9,20.8,4,20.8L4,20.8z
	 M11.8,25.8c-1.2,0-2.5-1.8-3.3-4.8c1.1-0.4,2.3-0.9,3.5-1.5c1.1,0.5,2.1,1,3.1,1.3C14.3,23.9,13,25.8,11.8,25.8L11.8,25.8z
	 M22.5,19.9c-0.5,0.7-1.6,0.9-2.5,0.9c-1,0-2.3-0.2-3.6-0.6c0.2-1.1,0.4-2.3,0.5-3.5c1.1-0.8,2-1.6,2.9-2.4
	C22.2,16.6,23.1,18.8,22.5,19.9L22.5,19.9z"/>
</svg>
