<?xml version="1.0" encoding="utf-8"?>
<!-- Generator: Adobe Illustrator 18.0.0, SVG Export Plug-In . SVG Version: 6.00 Build 0)  -->
<!DOCTYPE svg PUBLIC "-//W3C//DTD SVG 1.1//EN" "http://www.w3.org/Graphics/SVG/1.1/DTD/svg11.dtd">
<svg version="1.1" id="Layer_1" xmlns="http://www.w3.org/2000/svg" xmlns:xlink="http://www.w3.org/1999/xlink" x="0px" y="0px"
	 viewBox="0 0 22 32" enable-background="new 0 0 22 32" xml:space="preserve">
<path fill="#333333" d="M11,7.5c-1.5,0-2.7,1.2-2.7,2.7c0,1.5,1.2,2.7,2.7,2.7c1.5,0,2.7-1.2,2.7-2.7C13.7,8.6,12.5,7.5,11,7.5z
	 M11,11.7c-0.9,0-1.6-0.7-1.6-1.6c0-0.9,0.7-1.6,1.6-1.6c0.9,0,1.6,0.7,1.6,1.6C12.6,11,11.9,11.7,11,11.7z"/>
<path fill="#333333" d="M16.3,18.9c0-3.8,0-8.2,0-9.8c0-3-2-7-5.3-9.1C7.6,2.1,5.7,6.1,5.7,9.2c0,1.6,0,6,0,9.8l-5.3,6.6h21.3
	L16.3,18.9L16.3,18.9z M5.7,24.5H2.6l3.1-3.9V24.5z M15.3,24.5H6.7V9.2c0-2.4,1.5-5.9,4.3-7.9c2.8,2,4.3,5.4,4.3,7.9V24.5L15.3,24.5
	z M16.3,20.6l3.1,3.9h-3.1C16.3,23.6,16.3,22.2,16.3,20.6z"/>
<path fill="#333333" d="M10.5,26.7h1.1V32h-1.1V26.7z"/>
<path fill="#333333" d="M13.1,26.7h1.1v3.2h-1.1V26.7z"/>
<path fill="#333333" d="M7.8,26.7h1.1v3.2H7.8V26.7z"/>
</svg>
