<?xml version="1.0" encoding="utf-8"?>
<!-- Generator: Adobe Illustrator 18.0.0, SVG Export Plug-In . SVG Version: 6.00 Build 0)  -->
<!DOCTYPE svg PUBLIC "-//W3C//DTD SVG 1.1//EN" "http://www.w3.org/Graphics/SVG/1.1/DTD/svg11.dtd">
<svg version="1.1" id="Layer_1" xmlns="http://www.w3.org/2000/svg" xmlns:xlink="http://www.w3.org/1999/xlink" x="0px" y="0px"
	 viewBox="0 0 26 26" enable-background="new 0 0 26 26" xml:space="preserve">
<path fill="#333333" d="M25.6,24.4l-7.3-7.3c1.5-1.8,2.3-4,2.3-6.5c0-5.6-4.5-10.1-10.1-10.1C4.9,0.6,0.4,5.1,0.4,10.7
	c0,5.6,4.5,10.1,10.1,10.1c2.5,0,4.7-0.9,6.5-2.3l7.3,7.3L25.6,24.4z M1.5,10.7c0-5,4.1-9.1,9.1-9.1c5,0,9.1,4.1,9.1,9.1
	s-4.1,9.1-9.1,9.1C5.5,19.8,1.5,15.7,1.5,10.7z"/>
</svg>
