<?xml version="1.0" encoding="utf-8"?>
<!-- Generator: Adobe Illustrator 18.0.0, SVG Export Plug-In . SVG Version: 6.00 Build 0)  -->
<!DOCTYPE svg PUBLIC "-//W3C//DTD SVG 1.1//EN" "http://www.w3.org/Graphics/SVG/1.1/DTD/svg11.dtd">
<svg version="1.1" id="Layer_1" xmlns="http://www.w3.org/2000/svg" xmlns:xlink="http://www.w3.org/1999/xlink" x="0px" y="0px"
	 viewBox="0 0 26 26" enable-background="new 0 0 26 26" xml:space="preserve">
<path fill="#575858" d="M13,0.2C5.9,0.2,0.2,5.9,0.2,13c0,7.1,5.7,12.8,12.8,12.8c7.1,0,12.8-5.7,12.8-12.8
	C25.8,5.9,20.1,0.2,13,0.2z M13,24.7C6.5,24.7,1.3,19.5,1.3,13C1.3,6.5,6.5,1.3,13,1.3c6.5,0,11.7,5.3,11.7,11.7
	C24.7,19.5,19.5,24.7,13,24.7z"/>
<path fill="#575858" d="M19.7,16c-0.3-0.1-0.6-0.1-0.7,0.2c-1.2,2.3-3.5,3.7-6,3.7c-2.6,0-4.8-1.4-6-3.7C6.9,16,6.6,15.9,6.3,16
	c-0.3,0.1-0.4,0.4-0.3,0.7C7.4,19.3,10,21,13,21c2.9,0,5.6-1.7,6.9-4.3C20,16.5,19.9,16.1,19.7,16L19.7,16z"/>
<path fill="#575858" d="M10.3,10.3c0,0.9-0.7,1.6-1.6,1.6c-0.9,0-1.6-0.7-1.6-1.6c0-0.9,0.7-1.6,1.6-1.6C9.6,8.7,10.3,9.4,10.3,10.3
	z"/>
<path fill="#575858" d="M18.9,10.3c0,0.9-0.7,1.6-1.6,1.6c-0.9,0-1.6-0.7-1.6-1.6c0-0.9,0.7-1.6,1.6-1.6
	C18.2,8.7,18.9,9.4,18.9,10.3z"/>
</svg>
