<?xml version="1.0" encoding="utf-8"?>
<!-- Generator: Adobe Illustrator 18.0.0, SVG Export Plug-In . SVG Version: 6.00 Build 0)  -->
<!DOCTYPE svg PUBLIC "-//W3C//DTD SVG 1.1//EN" "http://www.w3.org/Graphics/SVG/1.1/DTD/svg11.dtd">
<svg version="1.1" id="Layer_1" xmlns="http://www.w3.org/2000/svg" xmlns:xlink="http://www.w3.org/1999/xlink" x="0px" y="0px"
	 viewBox="0 0 72 45" enable-background="new 0 0 72 45" xml:space="preserve">
<g id="Swimming_1_">
	<g id="Boat_and_sea_1_">
		<path fill="#333333" d="M57,36.4c-5.3-0.2-14.5,3.3-21,3.3c-6.6,0-12.9-5.7-18.2-5.5C7,34.7,0,41.2,0,42c0,0.8,7-4.2,17.8-3.9
			c5.3,0.2,11.7,6.1,18.2,6.1c6.6,0,15.7-3.7,21-3.9c10.8-0.4,15,2.5,15,1.7C72,41.2,67.8,36.8,57,36.4z"/>
	</g>
	<circle fill="#333333" cx="53.6" cy="23.7" r="10.4"/>
	<path fill="#333333" d="M58.1,1.6c-0.9-1.6-2.9-2.1-4.5-1.2c-8.1,4.7-22.2,7.7-23,13.9c-0.6,4.5,0.8,8.2,2.3,10.7
		c0.6,1,1.1,1.7,1.5,2.3l-10.8,6.3c0.3,0.1,0.5,0.2,0.8,0.4c3.9,1.8,8,3.6,11.9,3.6c2.5,0,5.4-0.4,8.4-1l2.6-1.5
		c-1.9-1.1-3.6-2.7-4.8-4.8c-1.2-2.1-1.7-4.3-1.7-6.5L40.1,24c-0.1-0.1-0.2-0.2-0.3-0.3c0,0-3.5-3.8-2.8-8.5
		c0.6-4.1,13.6-5.5,19.8-9.1C58.5,5.2,59,3.2,58.1,1.6z"/>
</g>
</svg>
