<?xml version="1.0" encoding="utf-8"?>
<!-- Generator: Adobe Illustrator 18.0.0, SVG Export Plug-In . SVG Version: 6.00 Build 0)  -->
<!DOCTYPE svg PUBLIC "-//W3C//DTD SVG 1.1//EN" "http://www.w3.org/Graphics/SVG/1.1/DTD/svg11.dtd">
<svg version="1.1" id="Layer_1" xmlns="http://www.w3.org/2000/svg" xmlns:xlink="http://www.w3.org/1999/xlink" x="0px" y="0px"
	 viewBox="0 0 19 27" enable-background="new 0 0 19 27" xml:space="preserve">
<path fill="#333333" d="M16.1,7.6V1.2h2.7V0.2H0.2v1.1h2.7v6.3c0,1.8,0.7,3.9,5.4,6.2c-4,1.9-5.4,3.6-5.4,6.5v5.5H0.2v1.1h18.7v-1.1
	h-2.7v-5.5c0-2.8-1.4-4.5-5.4-6.5C15.4,11.5,16.1,9.3,16.1,7.6z M15,20.2v5.5H3.9v-5.5c0-2.2,0.9-3.8,5.6-5.9
	C14.1,16.5,15,18,15,20.2z M9.4,13.2c-4.9-2.2-5.5-4.1-5.5-5.6V1.2H15v6.3C15,9.1,14.4,10.9,9.4,13.2z"/>
</svg>
