<svg version="1.1" xmlns="http://www.w3.org/2000/svg" xmlns:xlink="http://www.w3.org/1999/xlink" x="0px" y="0px"
	 viewBox="0 0 59 76" enable-background="new 0 0 59 76" xml:space="preserve">
<g>
	<g>
		<path fill="#51B3AE" d="M27.4,61.9c-2.6,0-5.6,0-8.9-0.1l-0.5,0l0.3-0.4c0-0.1,4.5-5.4,5.1-7.2c0.2-0.7,0.1-3.3-0.3-7.3
			c-4.1-2.2-7.2-6.7-8.5-12.1c0,0,0,0.1-0.1,0.1c-0.3,0.3-0.5,0.4-0.8,0.4c-0.6,0-1-0.8-1.9-2.5l-0.4-0.7c-1.3-2.6-0.2-4.6,0.6-6
			c0.2-0.3,0.4-0.4,0.5-0.4c0.3,0,0.6,0.2,1.1,1.2l-0.1-1.6l0.6,1.7c0,0.1,0.1,0.3,0.2,0.5c0.1-0.8,0.3-2.7,0.5-7l0-0.1l0.1-0.1
			c3.3-2.8,9.1-6,14.7-6c5.2,0,10.6,3.9,13.5,6l0.1,0.1l0,0.1c0.2,3.7,0.4,5.9,0.5,6.9c0.8-1.8,1.2-1.8,1.4-1.8
			c0.1,0,0.4,0.1,0.5,0.4c0.8,1.4,2,3.4,0.6,6l-0.4,0.7c-0.8,1.6-1.2,2.4-1.8,2.4c-0.2,0-0.5-0.1-0.8-0.4c-1.4,5.5-4.7,10-8.9,12.2
			c-0.1,4.1-0.1,6.9,0.2,7.6c0.3,0.7,1.9,2.4,3.4,3.8c2.2,2.2,2.8,2.8,2.6,3.2c0,0.1-0.2,0.3-0.7,0.1c-0.9-0.3-1.4-0.3-3.1-0.1
			C35.4,61.7,32.7,61.9,27.4,61.9z M19,61.3c3.1,0.1,5.9,0.1,8.4,0.1c5.3,0,8-0.2,9.7-0.3c1.7-0.1,2.3-0.1,3.2,0.1
			c-0.4-0.5-1.4-1.6-2.3-2.5c-1.5-1.5-3.1-3.1-3.5-4c-0.4-1-0.4-4.9-0.3-8l0-0.1l0.1-0.1c4.3-2.1,7.7-6.8,8.9-12.5l0.2-0.8l0.3,0.8
			c0.1,0.2,0.1,0.3,0.2,0.4c0.2,0.2,0.3,0.3,0.4,0.3c0.3,0,0.8-1,1.4-2.2l0.4-0.7c1.2-2.4,0.2-4.1-0.6-5.5c-0.1-0.1-0.1-0.1-0.1-0.1
			c0,0-0.4,0-1.3,2.2l-0.2,0.5l-0.3-0.4c-0.1-0.2-0.4-0.6-0.7-7.7c-2.9-2.1-8.1-5.9-13.1-5.9c-5.4,0-11.1,3.1-14.3,5.8
			c-0.4,7.9-0.7,7.9-1,7.9c-0.1,0-0.1,0-0.1,0l0,0.9l-0.5-1.2c-0.8-2-1.2-2-1.2-2c0,0,0,0-0.1,0.1c-0.8,1.4-1.8,3.1-0.6,5.5l0.4,0.7
			c0.6,1.2,1.1,2.2,1.4,2.2c0.1,0,0.2-0.1,0.4-0.3c0.1-0.1,0.2-0.3,0.3-0.6l0.3-0.9l0.2,1c1.2,5.6,4.4,10.3,8.5,12.5l0.1,0.1l0,0.1
			c0.5,4.2,0.6,6.8,0.3,7.7C23.4,55.9,20.1,60,19,61.3z"/>
	</g>
	<path fill="#51B3AE" d="M36.6,56.3c0,0,2.2,4.3-7.5,5.1c-9.7-0.8-7.5-5.1-7.5-5.1s-21-1.1-21,17c0,0.6,13.1,2.9,29.3,2.9
		c16.2,0,29.3-2.2,29.3-2.9C57.9,54.2,36.6,56.3,36.6,56.3z"/>
	<path fill="#51B3AE" d="M47.1,16.4c-0.1-6.7-3.5-8.6-8.2-11.2c-4.4-2.6-12.5-4.9-12.5-4.9L28,3.4l-8.2-2.1l2.8,3.6l-9.8-1.2
		l2.3,6.2c0,0-3.6,3.4-3.6,7.8c0,4.1,1.4,7.2,2.2,9.5c0.1,0.4,0.9,1.5,0.9,1.5s0.8-1.5,0.8-3.2c0-2.3,0.8-4.4,2-5.9
		c4.4-1.4,12.7-0.7,17.8,1.3c4.3,1.7,4.8-1.7,7.3-0.5c0.1,0.3,0.2,0.5,0.3,0.8c0.3,1.5,1,8.4,1.3,7.4c0.4-1.5,3-7.2,3.1-8.8
		c0,0,0,0,0,0C47.1,19.4,47.1,17.4,47.1,16.4z"/>
	<g>
		<path fill="#51B3AE" d="M43.2,26c-0.1-0.1-0.3-0.1-0.4-0.2c-0.3-0.1-0.6-0.2-0.9-0.2c-0.6-0.1-1.2-0.2-1.9-0.3
			c-1.3-0.1-2.5-0.2-3.8-0.2c-1.3,0-2.5,0-3.8,0.2c-0.3,0-0.6,0.1-0.9,0.2c-0.3,0.1-0.6,0.2-0.9,0.4c-0.1,0.1-0.2,0.2-0.4,0.3
			c-0.1,0.1-0.3,0.2-0.4,0.3c-0.3,0.2-0.6,0.2-0.9,0.3h0h0c-0.4,0-0.8-0.1-1.2-0.4c-0.1-0.1-0.2-0.1-0.3-0.2
			c-0.1-0.1-0.2-0.2-0.2-0.2c-0.2-0.1-0.3-0.2-0.5-0.3c-0.4-0.1-0.8-0.2-1.2-0.3c-0.4-0.1-0.8-0.1-1.2-0.1c-1.7-0.1-3.3,0-5,0.1
			c-0.8,0.1-1.6,0.2-2.5,0.3c-0.4,0.1-0.8,0.1-1.2,0.2c-0.2,0.1-0.4,0.1-0.6,0.2c-0.2,0.1-0.4,0.1-0.5,0.2c0,0-0.1,0.1-0.1,0.1
			c0,0,0,0,0,0c0,0,0,0,0,0l0,0l0,0c0,0.1,0,0.2-0.1,0.3c0,0.2-0.1,0.4-0.1,0.6c0,0.1,0,0.2,0,0.3c0,0,0,0.1,0.1,0.1l0.1,0.1
			c0.1,0.2,0.2,0.4,0.3,0.6c0.4,0.8,0.6,1.6,0.8,2.4c0.2,0.8,0.3,1.6,0.7,2.3c0.2,0.4,0.4,0.7,0.7,1c0.3,0.3,0.6,0.5,1,0.6
			c0.7,0.3,1.5,0.4,2.4,0.5c0.8,0,1.6-0.1,2.4-0.3c0.8-0.2,1.6-0.5,2.3-0.9c0.2-0.1,0.3-0.2,0.5-0.3c0.2-0.1,0.3-0.3,0.4-0.4
			c0.2-0.3,0.4-0.7,0.6-1.1c0.3-0.7,0.6-1.5,0.9-2.3c0.1-0.4,0.3-0.8,0.5-1.2c0.1-0.1,0.1-0.2,0.2-0.3c0,0,0.1-0.1,0.1-0.1
			c0,0,0,0,0,0l0,0c0,0,0.1,0,0.1,0c0.2-0.1,0.4-0.1,0.7-0.1h0c0.3,0,0.6,0,0.8,0.2c0.1,0.1,0.1,0.1,0.2,0.2c0,0.1,0.1,0.1,0.1,0.2
			c0.1,0.1,0.1,0.2,0.2,0.4c0.2,0.5,0.4,1,0.5,1.5c0.2,0.5,0.3,1,0.5,1.4c0.2,0.5,0.4,0.9,0.7,1.3c0.1,0.2,0.3,0.4,0.5,0.5
			c0.2,0.1,0.4,0.3,0.6,0.4c0.4,0.2,0.9,0.4,1.4,0.6c1,0.3,2,0.5,3,0.5c1,0,2.1-0.1,3-0.6c0.4-0.3,0.8-0.6,1.1-1
			c0.3-0.4,0.5-0.9,0.6-1.4c0.3-1,0.4-2,0.8-3c0.2-0.5,0.4-1,0.7-1.4c0.1-0.1,0.1-0.2,0.2-0.3c0-0.1,0-0.3,0-0.4
			c0-0.3-0.1-0.5-0.1-0.8C43.5,26.1,43.4,26,43.2,26z"/>
		<path fill="#F3F1EA" d="M26.1,27.5c-0.2-0.3-0.4-0.5-0.7-0.6c-0.5-0.3-1.2-0.4-1.8-0.5c-0.6-0.1-1.2-0.1-1.8-0.1
			c-0.6,0-1.2,0-1.8,0.1c-0.6,0-1.2,0-1.8,0.1c-0.3,0-0.6,0.1-0.8,0.2c-0.3,0.1-0.5,0.3-0.6,0.6c-0.3,0.5-0.3,1.1-0.3,1.7
			c0,0.6,0.1,1.2,0.2,1.8c0.1,0.6,0.3,1.2,0.6,1.7c0.1,0.1,0.1,0.3,0.2,0.4c0,0.1,0.1,0.1,0.1,0.2c0,0.1,0.1,0.1,0.2,0.1
			c0.2,0.2,0.5,0.3,0.8,0.4c0.6,0.2,1.2,0.3,1.8,0.3c0.6,0,1.2-0.1,1.8-0.2c0.6-0.1,1.2-0.3,1.7-0.6c0.5-0.3,1-0.8,1.3-1.3
			c0.4-0.5,0.6-1.1,0.8-1.7c0.2-0.6,0.3-1.2,0.4-1.8C26.3,28.1,26.3,27.8,26.1,27.5z"/>
		<path fill="#F3F1EA" d="M31.4,27.5c0.2-0.3,0.4-0.5,0.7-0.6c0.5-0.3,1.2-0.4,1.8-0.5c0.6-0.1,1.2-0.1,1.8-0.1c0.6,0,1.2,0,1.8,0.1
			c0.6,0,1.2,0,1.8,0.1c0.3,0,0.6,0.1,0.8,0.2c0.3,0.1,0.5,0.3,0.6,0.6c0.3,0.5,0.3,1.1,0.3,1.7c0,0.6-0.1,1.2-0.2,1.8
			c-0.1,0.6-0.3,1.2-0.6,1.7c-0.1,0.1-0.1,0.3-0.2,0.4c0,0.1-0.1,0.1-0.1,0.2c0,0.1-0.1,0.1-0.2,0.1c-0.2,0.2-0.5,0.3-0.8,0.4
			c-0.6,0.2-1.2,0.3-1.8,0.3c-0.6,0-1.2-0.1-1.8-0.2c-0.6-0.1-1.2-0.3-1.7-0.6c-0.5-0.3-1-0.8-1.3-1.3c-0.4-0.5-0.6-1.1-0.8-1.7
			c-0.2-0.6-0.3-1.2-0.4-1.8C31.2,28.1,31.2,27.8,31.4,27.5z"/>
	</g>
</g>
</svg>