<?xml version="1.0" standalone="no"?>
<!DOCTYPE svg PUBLIC "-//W3C//DTD SVG 20010904//EN"
 "http://www.w3.org/TR/2001/REC-SVG-20010904/DTD/svg10.dtd">
<svg version="1.0" xmlns="http://www.w3.org/2000/svg"
 width="700.000000pt" height="700.000000pt" viewBox="0 0 700.000000 700.000000"
 preserveAspectRatio="xMidYMid meet">
<metadata>
Created by potrace 1.11, written by Peter Selinger 2001-2013
</metadata>
<g transform="translate(0.000000,700.000000) scale(0.100000,-0.100000)"
fill="#000000" stroke="none">
<path d="M2795 6988 c-213 -48 -365 -123 -528 -262 -59 -49 -59 -50 -137 -52
-202 -7 -388 -103 -526 -269 -39 -48 -124 -181 -124 -196 0 -4 -21 -10 -47
-14 -64 -9 -184 -50 -258 -87 -146 -74 -301 -210 -393 -345 -96 -141 -181
-353 -218 -538 -27 -137 -37 -256 -40 -461 l-2 -231 -55 -114 c-234 -487 -213
-964 59 -1346 54 -74 185 -210 259 -269 76 -59 73 -55 64 -110 -13 -81 -10
-280 6 -390 37 -245 147 -471 309 -630 56 -55 171 -141 224 -168 32 -17 33
-19 27 -59 -19 -112 -9 -270 23 -369 45 -138 145 -263 265 -334 34 -20 103
-50 153 -66 72 -24 95 -36 107 -58 58 -97 260 -320 379 -417 79 -64 200 -132
294 -165 76 -26 104 -31 194 -32 112 -1 137 2 215 29 147 51 302 174 412 326
19 27 39 49 43 49 5 0 24 -21 42 -47 46 -68 183 -202 252 -247 74 -49 174 -91
246 -104 73 -14 211 -8 284 12 143 40 312 147 459 293 81 80 220 246 253 301
14 25 31 35 88 52 188 56 317 158 398 315 34 66 38 76 58 170 17 79 20 206 6
290 l-6 40 86 55 c241 153 401 393 470 705 18 79 28 385 15 452 -4 23 -5 45
-2 50 3 4 33 31 66 58 33 28 71 59 84 70 49 41 173 190 217 262 138 220 203
504 172 743 -4 30 -9 73 -11 95 -13 108 -73 296 -144 445 l-54 115 -4 235 c-3
239 -14 345 -54 514 -77 324 -223 562 -446 728 -109 82 -262 157 -350 171 -96
16 -101 18 -120 55 -134 262 -374 428 -632 436 l-75 2 -76 60 c-68 53 -117 88
-187 131 -188 117 -444 158 -674 109 -92 -20 -237 -82 -318 -138 l-41 -28 -73
45 c-66 41 -204 101 -252 111 -10 2 -26 5 -35 8 -69 21 -280 29 -347 14z m305
-253 c73 -19 163 -59 230 -104 l45 -30 0 -2963 0 -2964 -67 -99 c-274 -407
-561 -435 -915 -87 -109 107 -146 151 -226 269 -34 50 -73 98 -87 106 -14 9
-56 23 -93 31 -178 42 -283 132 -323 278 -19 69 -19 198 1 289 8 41 15 86 15
100 0 46 -40 89 -128 135 -237 126 -372 293 -438 544 -32 120 -38 326 -15 477
21 129 16 141 -92 224 -265 205 -396 394 -444 644 -10 53 -10 274 0 348 18
128 71 280 152 433 l53 101 -2 214 c-2 205 1 256 25 419 11 80 44 222 58 255
5 11 19 45 31 75 122 302 368 503 655 535 92 11 109 25 173 150 115 224 269
326 476 312 96 -6 115 1 190 70 154 141 318 228 476 252 70 11 178 5 250 -14z
m1114 0 c38 -10 94 -28 124 -42 59 -26 192 -108 192 -119 0 -6 -104 -148 -136
-187 -53 -64 -104 -151 -104 -179 0 -43 27 -93 56 -107 86 -39 126 -18 226
116 40 54 76 103 80 108 5 6 23 30 42 55 l33 45 99 2 c147 2 240 -35 342 -135
37 -37 107 -131 100 -136 -1 -1 -29 -15 -60 -30 -325 -155 -555 -474 -573
-796 -6 -97 38 -152 120 -152 66 0 108 48 119 137 4 28 9 57 11 65 2 8 9 34
15 58 8 33 46 83 162 220 84 97 163 188 177 201 31 30 177 100 216 105 47 5
168 -30 260 -75 47 -23 85 -46 85 -50 0 -4 9 -10 19 -14 32 -10 154 -137 204
-212 77 -115 151 -300 172 -427 3 -17 10 -56 15 -86 19 -119 24 -193 24 -410
l1 -225 58 -114 c114 -223 158 -398 153 -616 -4 -163 -25 -254 -87 -380 -84
-172 -206 -301 -432 -459 l-69 -48 -56 15 c-32 9 -115 33 -187 55 -71 21 -234
70 -362 108 l-232 69 -28 59 c-37 78 -72 106 -130 106 -38 0 -50 -5 -79 -34
-49 -49 -49 -96 1 -201 101 -211 259 -386 425 -470 97 -49 164 -66 271 -70
133 -5 257 23 379 85 22 11 44 20 49 20 15 0 5 -214 -14 -304 -57 -273 -197
-457 -443 -588 -133 -70 -146 -96 -117 -234 42 -198 4 -369 -104 -467 -54 -49
-104 -73 -209 -101 -108 -29 -121 -37 -157 -95 -131 -211 -369 -444 -520 -510
-195 -85 -356 -49 -520 116 -37 38 -98 115 -136 172 l-69 104 0 2957 0 2956
28 20 c168 123 376 166 566 119z"/>
<path d="M2170 5894 c-175 -46 -309 -173 -360 -339 -18 -59 -21 -185 -5 -243
41 -159 165 -295 314 -347 l36 -12 1 -492 c0 -437 -2 -491 -15 -492 -20 -1
-187 -1 -223 0 -16 1 -28 7 -28 14 0 37 -65 144 -123 201 -196 195 -488 195
-683 1 -192 -190 -194 -487 -5 -675 68 -68 129 -105 213 -129 176 -50 348 -3
479 129 52 52 119 164 119 197 0 16 -29 15 323 16 171 1 301 -2 305 -7 8 -13
6 -481 -2 -495 -4 -6 -16 -11 -27 -11 -12 0 -48 -16 -82 -36 -293 -170 -334
-555 -84 -784 34 -31 160 -100 183 -100 8 0 14 -10 15 -22 1 -27 1 -345 0
-370 -1 -11 -9 -18 -20 -18 -34 0 -143 -66 -197 -119 -196 -193 -195 -492 2
-688 259 -256 691 -142 804 213 73 227 -67 506 -295 585 -22 8 -42 17 -45 20
-4 6 -5 333 -1 387 1 6 7 12 14 12 7 0 41 14 77 32 75 36 176 131 210 197 131
258 34 551 -223 671 l-81 38 0 329 c-1 299 -3 330 -19 354 -31 46 -68 57 -196
57 -64 0 -124 1 -133 1 -17 1 -18 32 -18 495 l0 494 30 5 c49 10 140 68 194
123 250 254 149 676 -190 795 -76 26 -192 32 -264 13z"/>
<path d="M4209 5835 c-45 -25 -60 -59 -64 -148 -6 -105 -15 -218 -20 -237 -2
-8 -7 -39 -10 -68 -30 -280 -147 -605 -300 -836 -72 -109 -80 -144 -45 -201
44 -71 131 -73 193 -4 75 84 199 304 253 448 l20 54 25 -26 c13 -15 55 -104
94 -199 38 -95 93 -220 123 -278 53 -104 164 -281 199 -318 129 -138 185 -184
286 -234 149 -74 272 -101 467 -101 176 0 394 43 457 89 41 31 58 82 43 128
-24 74 -96 102 -186 72 -82 -27 -184 -42 -299 -45 -411 -9 -630 189 -865 779
-34 85 -75 178 -91 206 -34 59 -100 124 -146 143 -18 7 -33 19 -33 26 0 6 9
54 19 106 19 90 22 108 36 209 12 92 15 118 21 240 l6 125 -34 39 c-28 32 -41
39 -78 42 -27 3 -55 -2 -71 -11z"/>
<path d="M5463 5395 c-84 -42 -133 -123 -133 -217 1 -173 179 -288 337 -218
63 28 97 61 123 123 31 71 29 132 -4 201 -60 122 -202 171 -323 111z"/>
<path d="M4181 3839 c-76 -14 -152 -79 -181 -154 -32 -82 5 -216 73 -268 208
-158 482 51 374 286 -28 61 -97 121 -152 131 -62 12 -71 13 -114 5z"/>
<path d="M5621 3469 c-142 -42 -211 -204 -145 -337 42 -84 127 -136 220 -134
63 1 109 19 159 63 98 86 104 248 13 346 -52 56 -167 85 -247 62z"/>
<path d="M3889 2787 c-43 -29 -64 -86 -49 -132 6 -17 28 -51 51 -75 71 -78
160 -202 194 -271 68 -133 105 -293 99 -420 -4 -69 -5 -71 -61 -137 -80 -94
-155 -213 -218 -344 -68 -142 -81 -197 -59 -243 29 -62 94 -84 162 -56 33 14
34 15 118 196 15 33 43 86 62 118 39 68 264 296 315 320 19 9 67 21 106 27 84
12 113 28 136 76 31 65 -13 153 -82 167 -35 6 -113 -2 -178 -18 -27 -7 -52
-12 -56 -10 -3 2 -6 22 -7 44 -3 62 -39 206 -74 290 -50 121 -107 215 -197
328 -128 161 -186 191 -262 140z"/>
<path d="M4755 1524 c-72 -25 -137 -98 -151 -170 -19 -89 7 -174 68 -229 50
-46 94 -64 155 -67 122 -4 217 69 248 190 15 57 0 132 -36 183 -31 44 -44 55
-104 84 -57 28 -118 31 -180 9z"/>
<path d="M4174 925 c-54 -16 -95 -39 -121 -67 -97 -105 -83 -275 29 -357 163
-120 388 -11 388 189 0 60 -26 129 -63 168 -52 56 -163 88 -233 67z"/>
</g>
</svg>
